# xmcd
#
# Track frame offsets:
#	150
#	79498
#	114023
#	152117
#	180867
#	210515
#	255286
#
# Disc length: 4444 seconds
#
# Revision: 0
# Processed by: cddbd v1.5.2PL0 Copyright (c) Steve Scherf et al.
# Submitted via: dBpowerAMP V4.0
#
DISCID=47115a07
DTITLE=Various Artist - Campmeeting King Jesus
DYEAR=1900
DGENRE=Gospel
TTITLE0=King Jesus - Choir and Ensemble
TTITLE1=Touch through me - Jimmy Swaggart
TTITLE2=Daystar - Joseph Larson
TTITLE3=Honey in the Rock - Robin Herd
TTITLE4=Bring your needs to the Altar - Jimmy Swaggart
TTITLE5=Through the Blood - Randy Knaps
TTITLE6=Where the Roses never fade - Jimmy Swaggart
EXTD=
EXTT0=
EXTT1=
EXTT2=
EXTT3=
EXTT4=
EXTT5=
EXTT6=
PLAYORDER=
